<svg width="200" height="66" viewBox="0 0 200 66" fill="none" xmlns="http://www.w3.org/2000/svg">
<path d="M62.8441 51.9807C59.6513 51.9807 56.6378 51.9649 53.622 51.9945C52.998 52.0013 52.7439 51.5453 52.4896 51.1891C49.3514 46.8132 46.254 42.4076 43.1316 38.0181C38.8179 31.9589 34.4927 25.9065 30.1767 19.8495C29.9226 19.4934 29.6979 19.1168 29.4688 18.7674C29.6957 18.4158 29.9816 18.5451 30.2198 18.5429C32.9043 18.5338 35.5864 18.5429 38.271 18.5247C38.802 18.5202 39.1356 18.6563 39.4668 19.1259C43.1043 24.2981 46.76 29.4567 50.4383 34.5994C54.3208 40.0302 58.2329 45.4384 62.1292 50.8602C62.3448 51.1595 62.5285 51.4796 62.8485 51.9807H62.8441Z" fill="#FA9100"/>
<path d="M27.6456 50.9998C25.3463 51.6418 23.0583 51.9525 20.7068 52.0341C15.6973 52.2066 12.0679 48.9085 10.7151 44.8232C10.227 43.3509 10.0228 41.8654 10.0228 40.3318C10.0228 33.3795 10.0409 26.4271 10.0001 19.4747C9.99552 18.6037 10.2361 18.4109 11.0646 18.4381C13.028 18.5016 15.0005 18.5243 16.9616 18.4335C18.017 18.3859 18.3462 18.615 18.3348 19.7491C18.2713 26.5881 18.303 33.4294 18.303 40.2684C18.303 42.2283 18.5573 44.1087 19.6127 45.8395C21.4536 48.8607 24.4111 50.0994 27.6456 50.9998Z" fill="white"/>
<path d="M54.5627 28.2184C54.3925 24.3546 53.6394 21.0211 50.5312 18.5215H63.0953C60.0892 21.6057 57.4552 24.8441 54.5627 28.2184Z" fill="#BD00FF"/>
<path d="M38.1317 42.3438C38.2109 46.1969 39.1974 49.4638 42.261 52.0174C38.2132 52.0174 34.3492 52.0174 30.4875 52.0174C29.8004 52.0174 29.9591 51.7789 30.2403 51.3654C30.9999 50.2407 32.0861 49.4206 32.9229 48.3575C34.5126 46.3353 36.2834 44.4566 38.134 42.3438H38.1317Z" fill="#00FF00"/>
<path d="M74.8197 20.8957L76.5953 20.668C78.2647 20.9716 79.0992 21.2751 79.0992 21.5786C79.4938 21.7607 79.8579 22.1553 80.192 22.7623C80.981 23.3693 81.8915 24.9931 82.9234 27.6337L84.3348 30.2288C84.8812 32.2016 85.291 33.188 85.5642 33.188C85.9283 33.188 86.5353 32.2168 87.3852 30.2743C88.4171 28.1497 89.9043 25.5546 91.8469 22.4891C92.4236 22.2767 92.712 22.049 92.712 21.8062C92.894 21.3813 93.1369 21.1082 93.4404 20.9867L94.0322 21.0323C94.4875 20.8805 94.9579 20.7743 95.4434 20.7136C97.5073 20.9867 98.5392 21.3054 98.5392 21.6696V21.7152L98.6303 32.3685L98.5392 35.3278C98.6909 36.5722 98.949 39.7744 99.3133 44.934L99.2222 45.4347C99.4651 45.5865 99.8443 45.6625 100.36 45.6625C100.998 45.7536 101.317 46.042 101.317 46.5275V46.8007C101.317 48.804 101.195 49.8053 100.952 49.8053H100.861C100.376 49.5627 99.8749 49.4412 99.3588 49.4412H96.6728C93.8805 49.4412 92.4842 49.1529 92.4842 48.5762L92.6208 47.438V47.2559C92.6208 47.1345 92.5145 46.9221 92.3022 46.6187V46.3455C92.3022 46.1937 92.8029 46.0268 93.8045 45.8445L94.0777 45.5259L93.9411 45.2527V44.5699C93.9411 44.1145 94.0928 43.3709 94.3963 42.339L94.5784 42.1115C94.366 41.8686 94.2597 40.624 94.2597 38.3781V35.6009L94.3054 34.2352C94.184 33.9013 94.1231 33.4612 94.1231 32.9149V32.2319C94.1231 31.5642 94.2143 30.6385 94.3963 29.4548C94.3963 29.0906 94.5481 28.6049 94.8516 27.9979L94.8973 27.7248C94.6847 26.6928 94.5784 25.9492 94.5784 25.4939H94.442C93.9259 26.0099 93.1064 27.1481 91.9835 28.9085C90.7087 31.3062 89.5553 33.2184 88.5234 34.6449L86.7022 37.2399C86.5201 37.5131 86.2621 37.6497 85.9283 37.6497L85.3819 37.422C85.0784 37.4828 84.8509 37.5586 84.6992 37.6497C84.3348 37.6497 84.1225 37.3006 84.0616 36.6026C83.7279 35.9045 83.2575 35.2064 82.6505 34.5083C82.1647 33.9316 81.2391 32.2016 79.8733 29.3182L79.3724 28.4077L78.7806 27.3605L78.826 27.315H79.0992C79.251 27.315 79.3724 27.5123 79.4635 27.9069L79.509 27.9979H79.6456V27.8158C79.6456 26.9053 79.2207 26.0858 78.3708 25.3573H78.2342V25.585H77.8701V25.8582L77.8244 26.3134V26.7687C78.3102 33.446 78.5528 39.1826 78.5528 43.9779C78.4922 44.1296 78.3859 44.2056 78.2342 44.2056C78.1127 44.2056 78.0521 44.0387 78.0521 43.7049L77.961 43.6592H77.8701L77.7335 44.6154C78.1281 44.8278 78.3253 45.0858 78.3253 45.3893L78.2342 45.9357C77.7486 45.9357 77.5057 45.8294 77.5057 45.617H77.3691L77.2325 45.8445V46.0723C77.2325 46.1937 77.8398 46.3909 79.0538 46.6641H79.2358C79.4484 46.6641 79.6759 46.6187 79.9188 46.5275C81.1631 46.7704 81.7854 46.9979 81.7854 47.2105V47.3925L81.5122 47.438C81.2997 47.438 80.981 47.2711 80.5561 46.9373H80.3286C79.6001 47.0282 79.2358 47.1497 79.2358 47.3014C79.2661 47.4228 79.3724 47.4837 79.5545 47.4837H80.192C81.1025 47.5746 81.5577 47.7415 81.5577 47.9844L81.6488 48.4396V48.7128C81.6488 49.1074 81.3302 49.335 80.6927 49.3958C80.2374 49.1832 79.767 49.0769 79.2813 49.0769V49.1226C79.2813 49.2135 79.4332 49.2592 79.7367 49.2592C80.1311 49.3501 80.3286 49.4412 80.3286 49.5324L79.8276 49.5778C78.9172 49.5778 77.096 49.4109 74.3645 49.0769L73.2263 49.3958C72.6799 49.2743 72.4067 49.0466 72.4067 48.7128V48.4396C72.0426 48.4396 71.7997 48.0601 71.6783 47.3014L71.6328 47.2105V46.9828C71.9666 46.3758 72.5736 46.0723 73.4538 46.0723C74.2128 45.8902 74.592 45.7536 74.592 45.6625V45.617L73.8181 24.5379L73.9093 22.5802L73.727 21.8518C73.727 21.2144 74.0913 20.8957 74.8197 20.8957ZM78.0521 23.6729C78.4165 24.3406 79.0083 25.1297 79.8276 26.0403L81.5122 29.4093H81.6488C81.6488 28.8933 81.057 27.3605 79.8733 24.811C79.8733 24.5986 79.5696 24.2192 78.9626 23.6729L78.8717 23.3997H78.5985C78.2342 23.43 78.0521 23.5211 78.0521 23.6729ZM77.2782 37.9683C77.2174 38.1504 77.1871 38.3478 77.1871 38.5602V41.1098L77.2325 43.5226L77.2782 43.6138H77.3691C77.6726 43.6138 77.8701 43.4012 77.961 42.9765V42.7033C77.8398 42.7033 77.7486 42.5364 77.688 42.2024L77.7335 41.383V41.3373C77.7335 40.6089 77.6575 40.0627 77.5057 39.6984L77.6423 39.0611C77.612 38.3933 77.4906 38.0292 77.2782 37.9683ZM88.7509 30.3653L88.842 30.4564C89.0849 30.3046 89.4036 29.7735 89.7982 28.8629C90.0714 28.5898 90.3141 28.0586 90.5267 27.2695V27.1784L90.3444 27.0874C89.9197 27.0874 89.3884 28.18 88.7509 30.3653ZM97.4921 30.3653C97.553 32.3382 97.6895 33.3701 97.9019 33.4612L97.993 33.3701V31.9133C97.993 30.7599 97.9474 29.8949 97.8564 29.3182H97.7199C97.5681 29.3182 97.4921 29.6673 97.4921 30.3653ZM77.096 32.3685C77.1568 33.9772 77.2631 34.7815 77.4148 34.7815H77.5057V34.1896C77.5057 33.2487 77.4754 32.2926 77.4148 31.3214H77.3691C77.2479 31.3214 77.1568 31.6705 77.096 32.3685ZM76.4132 25.4939H76.1855L76.14 25.7671V27.3605C76.14 27.9069 76.2158 28.18 76.3675 28.18C76.5195 28.18 76.5953 27.7855 76.5953 26.9963C76.5953 26.3589 76.5347 25.8582 76.4132 25.4939ZM97.993 42.1115C97.8108 42.2935 97.7199 42.6424 97.7199 43.1585V43.8413L97.9019 44.1145H98.1751C98.2662 44.1145 98.3268 43.9627 98.3571 43.6592C98.2357 42.6273 98.1145 42.1115 97.993 42.1115ZM75.3661 39.653L75.4116 39.6984C75.6848 39.6984 75.8214 39.2432 75.8214 38.3327V36.8757L75.7757 36.6026C75.6239 36.6026 75.4873 37.6194 75.3661 39.653ZM74.6831 23.1265L74.6377 23.172V23.2176C74.7589 24.6137 74.8955 25.3118 75.0472 25.3118C75.1687 25.0994 75.2295 24.8262 75.2295 24.4923V24.1281C75.2295 23.4907 75.0472 23.1569 74.6831 23.1265ZM72.4067 46.6187L72.2246 46.755V46.9828C72.2246 47.1953 72.4067 47.4531 72.771 47.7566H72.8619C72.9531 47.7566 73.0137 47.6506 73.0442 47.438C73.0137 46.8916 72.9228 46.6187 72.771 46.6187H72.4067ZM96.4905 41.383H96.3084C96.0961 41.9292 95.9898 42.4149 95.9898 42.8399C96.0809 43.204 96.187 43.386 96.3084 43.386H96.3996L96.4905 41.4739V41.383ZM75.8214 22.5802H75.7757V22.8533C75.9883 23.9763 76.2006 24.5379 76.4132 24.5379H76.5498V24.3558L76.2312 23.5818C76.2312 23.1265 76.0946 22.7926 75.8214 22.5802ZM75.4116 42.9765V43.7049L75.5936 43.7958H75.6848L75.8214 42.7942L75.7757 42.4756H75.6848C75.5633 42.4756 75.4722 42.6424 75.4116 42.9765ZM76.0946 48.6674L75.8214 48.804C76.0337 48.9252 76.2918 48.986 76.5953 48.986H76.7319L77.1871 48.8949V48.7128L76.0946 48.6674ZM93.577 22.7168L93.6224 22.7623C93.7136 22.7623 93.9259 22.5499 94.2597 22.1249V21.8518H94.1231C93.8805 22.0035 93.6982 22.2919 93.577 22.7168ZM75.6848 35.0546H75.5936V35.4644V35.5099C75.5936 35.9652 75.6545 36.1928 75.7757 36.1928L75.9123 35.7375C75.8517 35.2823 75.7757 35.0546 75.6848 35.0546ZM93.5313 47.1193L93.3947 47.3014V47.4837L93.4858 47.5746L94.1231 47.438V47.3014C94.0928 47.18 93.9865 47.1193 93.8045 47.1193H93.5313ZM75.1384 29.4093H74.9563V30.5474L75.0929 30.6385H75.1384L75.2295 29.9101V29.7735L75.1384 29.4093ZM86.5656 34.2352H86.4292C86.247 34.5083 86.156 34.7208 86.156 34.8725V34.9636H86.2926C86.4444 34.9636 86.5353 34.7663 86.5656 34.3717V34.2352ZM77.8701 48.8949H77.5514V48.986L78.0976 49.1226H78.826V48.986L77.8701 48.8949ZM77.005 22.0794L76.7319 22.1249V22.2615C76.7319 22.3222 76.8533 22.3829 77.096 22.4436C77.2782 22.3829 77.3691 22.3222 77.3691 22.2615V22.1705L77.2325 22.0794H77.005ZM93.0306 23.6729H93.1215H93.1672C93.3492 23.4604 93.4404 23.2783 93.4404 23.1265V23.0355H93.3947C93.152 23.1872 93.0306 23.3997 93.0306 23.6729ZM93.8045 48.4396L93.4858 48.5308V48.6674L93.6224 48.7128H94.1231V48.6674C94.0625 48.5156 93.9562 48.4396 93.8045 48.4396ZM98.1751 44.5699H97.7653V44.6609L97.993 44.934H98.084L98.3117 44.752V44.6609L98.1751 44.5699ZM78.5528 22.4436V22.4891H79.0538L79.0992 22.4436V22.3526L79.0538 22.2615C78.7503 22.2615 78.5834 22.3222 78.5528 22.4436ZM95.9898 29.4548V29.5914L96.0809 29.7279C96.2021 29.6976 96.263 29.5914 96.263 29.4093V29.1361H96.1718C96.0504 29.1665 95.9898 29.2727 95.9898 29.4548ZM77.1871 36.2839V36.466L77.2325 37.0578H77.3691V36.7391C77.3691 36.4356 77.3085 36.2839 77.1871 36.2839ZM77.688 45.0252L77.5514 45.1161L77.688 45.2527H77.8701L77.961 45.1161L77.8701 45.0252H77.688ZM95.0793 44.5699H94.9427L94.8973 44.8429V44.934H95.0336L95.0793 44.7974V44.5699ZM96.9003 45.0706L96.7182 45.2527L96.8094 45.3893H97.0823V45.2527L96.9003 45.0706ZM95.9898 30.7296H95.8987V30.9117L95.9898 31.1848H96.0809V30.8661L95.9898 30.7296ZM96.1718 28.6353H96.263C96.3539 28.5746 96.3996 28.438 96.3996 28.2256C96.2478 28.2863 96.1718 28.4229 96.1718 28.6353ZM96.6271 39.1977H96.4905L96.445 39.3343L96.6271 39.4707L96.7182 39.3343V39.2886L96.6271 39.1977ZM96.5816 44.1145H96.3084V44.2968H96.445L96.5816 44.1602V44.1145ZM73.0442 48.3942H72.8619V48.5308L72.9531 48.6674L73.0442 48.5762H73.0897L73.0442 48.3942ZM74.592 22.1249H74.4554V22.2615L74.5465 22.3526H74.592V22.1249ZM75.3661 44.752H75.275V44.9795H75.4116V44.8429L75.3661 44.752ZM108.555 17.1625L110.103 16.9348C111.165 16.9348 112 17.4812 112.607 18.5738L112.926 20.0307C112.865 20.6073 112.531 21.3661 111.924 22.307C111.53 22.7016 110.923 22.8989 110.103 22.8989C108.191 22.8989 107.007 22.6106 106.552 22.0339C106.097 21.4268 105.884 20.577 105.915 19.4843C105.793 19.4843 105.733 19.454 105.733 19.3933V19.3022C106.643 17.8757 107.584 17.1625 108.555 17.1625ZM107.645 18.3006V18.3462C108.677 18.2248 109.193 18.0882 109.193 17.9364L108.965 17.8454C108.085 17.9971 107.645 18.1489 107.645 18.3006ZM108.419 19.6209H108.464L108.737 19.6665H108.828C109.162 19.6665 109.375 19.545 109.466 19.3022L109.42 19.2112H108.874C108.631 19.2112 108.479 19.3478 108.419 19.6209ZM111.697 19.2112L111.56 19.4388V19.6209H111.606L111.742 19.4388V19.2112H111.697ZM110.604 20.7136V20.8502H110.786C110.999 20.8502 111.165 20.7439 111.287 20.5315V20.3949H111.196C110.983 20.3949 110.786 20.5011 110.604 20.7136ZM109.602 21.5331L109.466 21.6696V21.7607H110.285L110.422 21.6696L110.285 21.5331H109.602ZM103.821 25.8582H103.957C104.2 26.0706 104.503 26.1768 104.868 26.1768L105.459 25.9037C109.587 25.9037 111.651 26.0251 111.651 26.2679L111.697 26.5866V27.3605C111.97 27.9676 112.106 28.5442 112.106 29.0906V29.819C111.742 34.7663 111.499 38.7728 111.378 41.8383C111.317 42.0203 111.257 42.339 111.196 42.7942C111.226 42.9156 111.363 42.9765 111.606 42.9765H111.742C113.381 42.9765 114.201 43.1737 114.201 43.5683L114.155 43.6592V43.9324C114.519 44.6609 114.701 45.8142 114.701 47.3925L114.884 49.2135L114.747 49.3047L112.744 49.3958H108.191C104.792 49.3958 103.092 49.1226 103.092 48.5762C103.092 48.2424 103.001 47.9084 102.819 47.5746C102.91 47.3622 103.062 47.1953 103.274 47.0739H103.411C103.532 47.1953 103.669 47.2559 103.821 47.2559H103.911C104.792 47.2559 105.839 47.18 107.053 47.0282V46.9373C104.443 46.755 103.138 46.5427 103.138 46.2998L103.092 45.9357V45.4347L103.001 44.2511C103.001 43.9476 104.139 43.7958 106.415 43.7958C106.719 43.7958 106.871 43.1131 106.871 41.7471L107.417 29.7735H107.326C106.476 29.7735 106.051 29.7128 106.051 29.5914C106.051 29.561 106.097 29.5155 106.188 29.4548C104.367 29.4548 103.456 29.2423 103.456 28.8174C103.335 28.7871 103.274 28.6656 103.274 28.4532L103.502 27.9069C103.502 27.7855 103.411 27.6185 103.229 27.4061C103.471 27.1633 103.638 26.6776 103.729 25.9492L103.821 25.8582ZM104.549 26.7687V26.9508H104.776C105.566 26.9508 105.96 26.8901 105.96 26.7687L105.869 26.5866H105.733C104.943 26.5866 104.549 26.6473 104.549 26.7687ZM110.741 26.45L110.604 26.5866L110.786 26.7232H110.877V26.5866L110.741 26.45ZM105.551 27.4061H104.731V27.5426C104.731 27.6641 104.943 27.7248 105.368 27.7248H105.869H106.006H107.508C107.963 27.7248 108.191 27.6489 108.191 27.4971V27.4516C108.191 27.2999 107.311 27.2847 105.551 27.4061ZM109.602 27.4516L109.193 27.4061V27.4971C109.405 27.4971 109.663 27.6489 109.967 27.9524H110.058C110.118 27.9524 110.149 27.9069 110.149 27.8158H110.24C110.361 27.8158 110.437 27.9524 110.467 28.2256H110.558L111.196 27.7703V27.4971L110.24 27.4516H109.602ZM109.42 30.0011L109.648 30.684L109.329 31.5035C109.451 31.7767 109.557 31.9133 109.648 31.9133H109.693L109.785 31.6401V31.3669C109.785 30.2743 109.951 29.7279 110.285 29.7279L110.422 29.5459V29.3637L110.285 29.2272H110.012C109.617 29.2272 109.42 29.4852 109.42 30.0011ZM108.009 34.3262L107.872 40.1993C107.903 40.4117 107.948 40.518 108.009 40.518C108.1 40.518 108.161 40.3814 108.191 40.1082L108.145 39.4252C108.297 39.2735 108.464 38.6665 108.646 37.6042V37.3311L108.555 36.6936C108.737 36.5419 108.828 36.4356 108.828 36.3749C108.707 36.0411 108.646 35.7072 108.646 35.3733V35.2823C108.768 35.2823 108.92 33.5826 109.102 30.1832C109.01 29.9404 108.92 29.819 108.828 29.819C108.373 29.819 108.1 31.3214 108.009 34.3262ZM110.24 30.3198L110.058 30.3653V30.6385C110.058 30.8206 110.134 30.9572 110.285 31.0482H110.422L110.558 30.8661V30.6385C110.498 30.4867 110.392 30.3805 110.24 30.3198ZM110.012 37.7408H109.785C109.542 38.8637 109.42 39.6984 109.42 40.2448H109.466C109.617 40.2448 109.815 39.6227 110.058 38.3781V38.0595L110.012 37.7408ZM109.147 42.0203V42.339H109.238C109.39 42.2783 109.466 42.0963 109.466 41.7926V41.4739H109.329C109.269 41.4739 109.208 41.6562 109.147 42.0203ZM109.238 42.7033L109.102 42.8853V43.1131H109.238L109.42 42.9765V42.8399L109.284 42.7033H109.238ZM112.88 43.7958L112.744 43.8413C112.926 43.9933 113.26 44.0842 113.745 44.1145V43.9779C113.745 43.8567 113.548 43.7958 113.154 43.7958H112.88ZM113.062 45.7079L112.516 45.8445C112.577 46.2089 112.85 46.3909 113.336 46.3909H113.472V46.2543L113.381 46.1177C113.381 46.0874 113.503 45.9963 113.745 45.8445V45.617C113.745 45.4044 113.685 45.283 113.563 45.2527H113.381C113.29 45.283 113.184 45.4347 113.062 45.7079ZM104.367 45.2981L104.048 45.3893V45.4347C104.291 45.6776 105.232 45.8142 106.871 45.8445H107.19C107.432 45.8445 107.584 45.7688 107.645 45.617V45.5259C106.37 45.3741 105.277 45.2981 104.367 45.2981ZM108.646 45.8445L108.828 46.0723C109.102 46.0723 109.238 45.9205 109.238 45.617H109.01C108.828 45.617 108.707 45.6928 108.646 45.8445ZM112.926 46.755L112.789 46.9373V47.0282H112.88L113.017 46.8462V46.755H112.926ZM109.42 47.0282L108.828 47.0739H108.191V47.2559L108.828 47.3014L110.149 47.2105V47.0739H109.967L109.42 47.0282ZM114.064 48.5762L113.882 48.7128V48.8494H114.155L114.201 48.7128L114.155 48.5762H114.064ZM116.158 26.3589L116.249 26.2679C116.947 26.3893 117.676 26.45 118.435 26.45H122.168L122.305 26.5866C122.122 27.1329 122.031 27.5578 122.031 27.8613V28.6353C122.153 29.4852 122.395 29.9101 122.76 29.9101C122.942 29.5762 123.549 29.2575 124.581 28.954C127.039 27.8917 129.043 27.3605 130.59 27.3605C131.622 27.3605 132.73 27.8158 133.914 28.7264C134.794 29.0602 135.644 29.7735 136.463 30.8661C137.708 32.839 138.33 35.1609 138.33 37.8318V38.1961L138.011 41.4739L138.33 43.8413L137.875 45.9811V46.0723V46.4364L139.605 46.5275H140.379C140.895 46.5275 141.198 46.573 141.289 46.6641C141.168 48.8797 140.94 49.9876 140.606 49.9876C139.999 50.3517 139.347 50.5338 138.649 50.5338H137.693C136.236 50.5338 134.703 50.7312 133.094 51.1256C132.032 50.9739 131.501 50.4429 131.501 49.5324L131.455 47.8932C131.455 46.8916 131.713 46.1632 132.229 45.7079C132.503 44.2208 132.821 42.8702 133.185 41.6562L133.459 37.6042C133.55 37.6042 133.595 37.2703 133.595 36.6026C133.595 35.7831 132.943 34.6145 131.638 33.097C130.636 32.672 130.059 32.4596 129.908 32.4596C128.147 32.4596 126.569 33.2032 125.173 34.6904C125.051 34.6904 124.308 35.434 122.942 36.9212C122.517 37.2551 122.305 38.2718 122.305 39.9716C122.365 43.0371 122.471 44.5699 122.623 44.5699C123.837 44.7823 124.444 45.01 124.444 45.2527V45.4347L123.443 45.3893L122.714 45.4347V45.617C122.714 45.7385 123.291 45.8902 124.444 46.0723C124.657 46.2846 124.763 46.6338 124.763 47.1193V47.2105C124.763 47.9389 124.611 48.7128 124.308 49.5324L119.027 49.5778C118.511 49.5778 118.131 49.3198 117.888 48.804C117.767 48.2273 117.63 47.1042 117.478 45.4347C117.478 45.283 117.934 45.1161 118.844 44.934L119.072 44.6154V44.5699C119.072 44.3877 118.951 44.1296 118.708 43.7958V42.3844V39.7896L118.89 35.6009C118.89 32.7479 118.768 31.3214 118.526 31.3214H118.298L116.158 31.5946C115.946 31.5946 115.658 31.4125 115.293 31.0482V30.8661C115.445 30.6233 115.521 30.3653 115.521 30.0922L115.43 28.4077L116.158 26.3589ZM120.119 27.1784L116.386 27.7703V27.8613C116.386 27.9524 116.613 28.0131 117.069 28.0435C119.042 28.0435 120.028 27.9069 120.028 27.6337L120.21 27.3605V27.2695H120.119V27.1784ZM129.179 28.0435V28.089C129.391 28.089 129.756 28.2711 130.272 28.6353L130.773 28.7719L132.229 28.7264L132.275 28.6353V28.5898C132.245 28.4077 132.078 28.3166 131.774 28.3166H131.592L131.137 28.4077C130.469 28.0131 129.983 27.8158 129.68 27.8158C129.407 27.8158 129.24 27.8917 129.179 28.0435ZM126.083 28.8629V28.9085L126.174 29.045C127.601 28.6808 128.314 28.4077 128.314 28.2256H128.223C127.555 28.2256 126.842 28.438 126.083 28.8629ZM117.296 28.9085L117.433 29.045H117.524C117.919 29.0147 118.116 28.9236 118.116 28.7719L117.888 28.7264C117.494 28.7264 117.296 28.7871 117.296 28.9085ZM117.706 29.819V29.9101L118.571 29.8645H118.708C119.011 29.8645 119.193 29.9404 119.254 30.0922V30.2288C119.102 30.3805 119.027 30.5323 119.027 30.684C119.178 30.8054 119.36 30.8661 119.573 30.8661C119.664 30.8661 119.709 30.8054 119.709 30.684L119.755 29.1816L119.709 29.045H119.573C119.391 29.1665 118.784 29.4093 117.752 29.7735L117.706 29.819ZM125.264 29.3182L125.309 29.3637V29.4093C125.582 29.3182 125.719 29.2423 125.719 29.1816V29.0906H125.628C125.385 29.1513 125.264 29.2272 125.264 29.3182ZM116.067 29.3637V29.4093C116.067 29.5003 116.143 29.5762 116.295 29.6369C116.538 29.6369 116.811 29.5003 117.114 29.2272V29.1816H116.386C116.173 29.212 116.067 29.2727 116.067 29.3637ZM131.774 30.0922C131.774 30.2136 132.047 30.3046 132.594 30.3653C132.715 30.2743 132.776 30.1529 132.776 30.0011C132.776 29.8494 132.533 29.7279 132.047 29.6369C131.865 29.7583 131.774 29.9101 131.774 30.0922ZM122.578 30.4564V30.6385C123.002 30.6385 123.458 30.3653 123.943 29.819V29.7735L123.898 29.7279H123.852C123.488 29.7279 123.063 29.9708 122.578 30.4564ZM133.504 29.819L133.368 30.0011C133.428 30.1529 133.55 30.2288 133.732 30.2288H133.96L134.187 30.0466V30.0011C134.157 29.8797 134.005 29.819 133.732 29.819H133.504ZM128.451 30.2743V30.3653H128.678C129.133 30.3046 129.361 30.2136 129.361 30.0922V30.0011H129.043C128.648 30.0315 128.451 30.1225 128.451 30.2743ZM120.984 30.0466H120.757L120.665 30.3198V31.1393C120.665 31.5035 120.605 31.7463 120.483 31.8677V32.0954L120.665 32.7327V33.097C120.665 33.3398 120.741 33.5067 120.893 33.5978C120.923 33.5978 121.015 33.2487 121.166 32.5506C121.591 32.2168 121.804 31.9588 121.804 31.7767C121.804 31.6249 121.637 31.2911 121.303 30.7751C121.212 30.2895 121.106 30.0466 120.984 30.0466ZM116.431 30.7751V30.8661H116.887L117.069 30.684V30.6385L116.841 30.5474C116.568 30.6385 116.431 30.7144 116.431 30.7751ZM132.73 30.9117L132.457 30.7751L132.366 30.8661V30.9117L132.594 31.0482H132.639L132.73 30.9117ZM129.225 31.2303L129.316 31.3214H129.361C130.029 31.3214 130.363 31.2607 130.363 31.1393L129.998 31.0482C129.483 31.1089 129.225 31.1696 129.225 31.2303ZM122.623 33.0059V33.1425C123.412 33.0514 124.505 32.3989 125.901 31.1848V31.1393H125.628C125.507 31.1393 125.142 31.3518 124.535 31.7767C123.261 32.1712 122.623 32.581 122.623 33.0059ZM133.504 31.2303H133.459V31.3669C133.459 31.458 133.656 31.8829 134.05 32.6417C134.05 32.8845 134.111 33.0059 134.232 33.0059L134.415 32.8238V32.6417C134.415 32.1561 134.111 31.6856 133.504 31.2303ZM119.345 31.7767L119.436 31.9133H119.527L119.664 31.3214H119.527C119.436 31.3214 119.375 31.4732 119.345 31.7767ZM130.818 32.0954V32.2319H131.956L132.138 32.0954V31.9133L131.911 31.7767H131.683C131.106 31.8677 130.818 31.974 130.818 32.0954ZM126.311 32.8238C126.979 32.7024 127.312 32.5355 127.312 32.323L127.176 32.2319H127.039C126.584 32.2319 126.341 32.4292 126.311 32.8238ZM124.854 33.3701V33.4612H124.991C125.476 33.0666 125.719 32.7327 125.719 32.4596H125.628V32.3685C125.385 32.3685 125.127 32.7024 124.854 33.3701ZM121.348 32.9149L121.44 33.188C121.44 33.4308 121.303 33.6736 121.03 33.9165C121.182 34.0682 121.257 34.22 121.257 34.3717C121.257 35.8893 121.364 36.6481 121.576 36.6481H121.622C121.864 36.1018 121.986 35.3885 121.986 34.5083C121.955 33.3853 121.819 32.7935 121.576 32.7327H121.485C121.394 32.7327 121.348 32.7935 121.348 32.9149ZM134.187 33.5067V33.6433C134.551 35.0091 134.779 35.7224 134.87 35.7831L134.961 35.4644V35.0546C134.749 34.0227 134.491 33.5067 134.187 33.5067ZM136.236 33.5978H136.19C136.251 35.2064 136.403 36.0107 136.646 36.0107H136.737C136.585 34.4021 136.418 33.5978 136.236 33.5978ZM124.308 33.6888L124.034 34.053V34.1441L124.08 34.2352H124.308L124.444 33.6888H124.308ZM123.033 34.1441L122.942 34.2352L123.033 34.3717H123.215V34.2352L123.124 34.1441H123.033ZM135.917 39.5164V39.5618L136.054 40.1082H136.281C136.251 39.7136 136.129 39.5164 135.917 39.5164ZM134.187 42.7942L134.232 42.8399H134.278C134.369 42.8399 134.415 42.6881 134.415 42.3844V41.8383C134.293 41.8383 134.217 42.1569 134.187 42.7942ZM133.914 43.5226C134.096 43.7352 134.187 44.0236 134.187 44.3877H134.278L134.415 43.8413V43.0674C134.081 43.0674 133.914 43.2191 133.914 43.5226ZM135.917 43.1131H135.826V43.3406H135.917V43.1131ZM136.964 43.3406L136.873 44.2511V45.3893H136.919C137.313 44.9037 137.511 44.4485 137.511 44.0236V43.9779C137.511 43.5532 137.329 43.3406 136.964 43.3406ZM135.78 45.4347V45.5259H135.826L136.008 45.0252V44.934H135.917C135.826 44.934 135.78 45.1009 135.78 45.4347ZM118.207 45.617L118.116 45.7991V45.8445C118.177 46.3909 118.374 46.6641 118.708 46.6641H118.981L119.118 46.5275V46.4364C118.844 46.1026 118.708 45.8294 118.708 45.617H118.207ZM135.917 46.2543H135.735V46.4364L135.917 46.6187L136.054 46.5275V46.4364L135.917 46.2543ZM138.376 47.3014V47.438C139.741 47.438 140.424 47.3317 140.424 47.1193V47.0282H139.787C138.846 47.0587 138.376 47.1497 138.376 47.3014ZM120.119 47.7566C120.119 47.9084 120.514 47.9844 121.303 47.9844C122.82 47.9844 123.579 47.9084 123.579 47.7566C123.579 47.5746 123.063 47.4837 122.031 47.4837C120.878 47.4837 120.24 47.5746 120.119 47.7566ZM132.457 47.8932H132.32V48.1664L132.457 48.303H132.594L132.639 48.1664V48.121L132.457 47.8932ZM138.785 48.2576V48.3942C138.846 48.5459 138.983 48.6217 139.195 48.6217C139.681 48.6217 139.969 48.5156 140.06 48.303V48.1664C139.999 47.9844 139.832 47.8932 139.559 47.8932H139.332C139.028 47.8932 138.846 48.0147 138.785 48.2576ZM133.459 49.0769C133.55 49.3198 133.701 49.4412 133.914 49.4412C135.553 49.4109 136.372 49.3047 136.372 49.1226C136.16 48.8494 135.78 48.7128 135.234 48.7128C134.05 48.7431 133.459 48.8646 133.459 49.0769ZM132.32 49.9419L132.138 50.1242V50.2151C132.138 50.4277 132.548 50.5338 133.368 50.5338H133.595L133.96 50.4429V50.3974C133.656 50.0937 133.17 49.9419 132.503 49.9419H132.32ZM160.183 14.9772L162.186 14.9316C163.431 15.1745 164.053 15.3566 164.053 15.478C164.114 15.478 164.174 15.9181 164.235 16.7983C164.569 17.1928 164.736 17.4508 164.736 17.5722C164.584 19.0291 164.447 22.0035 164.326 26.4955C164.265 26.4955 164.235 26.6473 164.235 26.9508C163.992 27.1026 163.871 27.2695 163.871 27.4516V28.18C163.871 28.7871 163.719 29.4852 163.416 30.2743L163.37 30.9117C163.37 31.0331 163.537 31.1241 163.871 31.1848V31.5035C163.416 35.3582 163.188 37.8774 163.188 39.0611C163.188 40.4571 163.097 41.1553 162.915 41.1553V41.2464C163.097 41.2464 163.203 41.4436 163.233 41.8383L163.188 42.1569V42.339C163.188 42.9156 163.006 44.3119 162.641 46.5275V47.5746C164.159 47.9084 164.918 48.3485 164.918 48.8949L164.69 49.1226V49.5324L164.918 49.8965C164.675 50.5338 163.81 50.8527 162.323 50.8527H162.05L161.822 50.4883H161.321L160.092 50.7615L158.362 50.7161C158.241 50.7161 158.104 49.9419 157.952 48.3942L158.043 46.9373C157.649 46.9373 157.027 47.2711 156.177 47.9389C153.658 49.335 151.442 50.0937 149.53 50.2151C147.769 49.7599 146.191 48.8797 144.795 47.5746C144.34 47.1193 143.869 46.4061 143.383 45.4347C142.837 44.676 142.564 44.2208 142.564 44.069V43.887H142.701C142.913 44.0387 143.308 44.5546 143.884 45.4347L144.112 45.4804L144.158 45.4347V44.8429C144.158 44.2359 143.839 43.5075 143.201 42.6576H142.974C142.792 42.6576 142.685 42.9308 142.655 43.4772H142.518L142.428 43.2494C142.488 42.0658 142.534 41.2919 142.564 40.9275H142.837L142.883 41.3373H142.974C143.125 41.2767 143.201 41.125 143.201 40.8821V40.0171L143.11 39.8805C143.019 39.8805 142.974 40.0019 142.974 40.2448L142.701 40.518C142.64 40.518 142.594 40.4117 142.564 40.1993C142.564 37.9229 143.308 35.4947 144.795 32.9149C145.493 31.7008 146.191 30.7296 146.889 30.0011C147.86 29.1209 149.393 28.6808 151.487 28.6808H151.897C155.114 28.6808 157.74 29.5155 159.773 31.1848L160.092 31.3669H160.229C160.502 30.0315 160.775 26.6473 161.048 21.2144C161.2 20.9716 161.321 20.8502 161.412 20.8502C160.441 20.2128 159.773 19.8941 159.409 19.8941C159.136 19.8941 158.969 18.847 158.908 16.7527C158.969 16.692 159.212 16.6465 159.637 16.6162V16.434C159.606 16.3126 159.485 16.2519 159.272 16.2519C159.121 16.1609 159.045 16.0546 159.045 15.9332C159.045 15.6297 159.394 15.478 160.092 15.478V15.2959L159.91 15.1137V15.0227L160.183 14.9772ZM160.229 16.9348L160.183 17.0714V17.1169H160.729V17.0714L160.593 16.9348H160.229ZM162.778 17.3901L162.687 17.5267V17.5722H163.37V17.4356L163.051 17.3901H162.778ZM161.367 18.2551L161.458 18.3917C162.186 18.3613 162.551 18.2703 162.551 18.1185L162.368 17.982H161.822C161.609 17.982 161.458 18.073 161.367 18.2551ZM160.183 18.073L160.092 18.2096V18.3006L160.411 18.3917C160.593 18.3917 160.699 18.331 160.729 18.2096L160.593 18.073H160.183ZM150.076 29.8645L149.939 30.0466V30.2743L150.076 30.3653H150.304L150.531 30.1832V30.0466L150.349 29.8645H150.076ZM152.762 30.3653L152.853 30.5474H154.856V30.3653C154.674 30.1832 154.173 30.077 153.354 30.0466H152.899C152.808 30.077 152.762 30.1832 152.762 30.3653ZM163.643 30.2743V30.0466H163.871V30.2743H163.643ZM146.98 31.2759V31.458L147.071 31.5035H147.253C148.316 31.2303 148.847 30.9117 148.847 30.5474C148.817 30.426 148.665 30.3653 148.392 30.3653H148.164C147.709 30.3653 147.314 30.6689 146.98 31.2759ZM156.768 30.8206L156.131 30.8661H156.04V31.0027C156.768 31.3062 157.239 31.458 157.451 31.458H157.497C157.497 31.1545 157.254 30.942 156.768 30.8206ZM161.185 31.0482H161.003C161.003 31.3518 161.063 31.5035 161.185 31.5035L161.23 31.458V31.3214L161.185 31.0482ZM151.578 31.8677L151.487 31.9588L151.578 32.0043H151.761L151.897 31.9133V31.8677H151.578ZM144.977 35.0546V35.1912H145.114C145.296 35.1305 145.493 34.7815 145.705 34.1441C146.616 32.8693 147.223 32.2319 147.527 32.2319L147.709 31.9133H147.435C147.314 31.9133 146.813 32.2168 145.933 32.8238C145.356 33.6736 145.038 34.4172 144.977 35.0546ZM150.076 32.1864L149.985 32.323H150.44L150.577 32.2319V32.1864H150.076ZM152.443 32.4141L152.534 32.4596H152.626L153.627 32.323V32.2319L153.308 32.1864C152.732 32.2168 152.443 32.2926 152.443 32.4141ZM154.856 32.1864L154.765 32.323L154.902 32.4596H155.175L155.266 32.323C155.205 32.2319 155.084 32.1864 154.902 32.1864H154.856ZM156.951 32.2319H156.768L156.951 32.4141L157.042 32.323L156.951 32.2319ZM157.952 32.5051H157.451C157.451 32.6265 157.892 32.8086 158.772 33.0514H158.817V32.9149C158.575 32.6417 158.286 32.5051 157.952 32.5051ZM145.25 41.383V42.0658C145.25 42.4907 145.827 43.7201 146.98 45.7536C147.83 46.2089 148.741 46.4364 149.712 46.4364C151.806 46.4364 153.84 45.9357 155.813 44.934C156.632 43.6895 157.345 43.0674 157.952 43.0674C158.286 42.7336 158.65 41.5954 159.045 39.653C159.288 39.1066 159.409 38.545 159.409 37.9683V37.5131C159.409 36.2383 159.242 35.6009 158.908 35.6009C158.21 34.9636 157.861 34.5842 157.861 34.4628L158.043 34.1896C158.043 34.0682 157.603 33.8861 156.723 33.6433L156.45 33.4612L156.495 33.3701H157.178V33.3246C157.178 33.0211 155.524 32.8542 152.216 32.8238L151.578 32.6872C149.15 32.93 147.936 33.2487 147.936 33.6433C146.813 34.9788 146.085 36.6177 145.751 38.5602C145.417 39.7136 145.25 40.6546 145.25 41.383ZM158.544 34.1896L158.362 34.3717V34.7359L158.59 34.9636H158.726C158.848 34.9332 158.908 34.8118 158.908 34.5994C158.908 34.4172 158.817 34.2807 158.635 34.1896H158.544ZM144.522 39.1066C144.522 39.1977 144.567 39.2432 144.658 39.2432C144.871 39.2432 145.023 38.9397 145.114 38.3327V38.0595H144.977C144.825 38.0595 144.673 38.4084 144.522 39.1066ZM158.999 45.9811V46.2543C159.182 46.2543 159.272 46.3909 159.272 46.6641H159.364L159.591 46.4364V46.0723C159.47 45.9811 159.409 45.8294 159.409 45.617H159.272C159.09 45.6473 158.999 45.7688 158.999 45.9811ZM155.585 46.3455V46.5275H155.63C155.934 46.4061 156.177 46.2089 156.359 45.9357V45.8445L156.268 45.7536H156.177C155.964 45.8445 155.767 46.042 155.585 46.3455ZM151.032 46.9373V47.0739H151.578C153.582 46.9525 154.689 46.6641 154.902 46.2089V46.0723H154.765C152.428 46.4669 151.184 46.755 151.032 46.9373ZM161.458 46.2543H161.412L161.367 46.6187V47.2105L161.458 47.3471H161.549L161.64 47.2105V46.755C161.64 46.4515 161.579 46.2846 161.458 46.2543ZM145.341 46.6641H145.159V46.8007C145.159 46.9828 145.66 47.1193 146.662 47.2105V47.0739C145.963 46.8007 145.523 46.6641 145.341 46.6641ZM146.388 47.3925L146.252 47.4837C146.252 47.8175 147.147 48.1513 148.938 48.4851H149.165L149.257 48.3942V48.3485C149.257 48.0147 148.392 47.696 146.662 47.3925H146.388ZM159.272 47.5746L159.045 47.7566V47.8478H159.182L159.364 47.6657V47.5746H159.272ZM152.17 47.9389V48.0298L152.307 48.121H152.58C153.551 48.0601 154.037 47.9692 154.037 47.8478L153.9 47.7566H153.035C152.459 47.7566 152.17 47.8175 152.17 47.9389ZM161.776 47.8932H161.549V48.0298L161.64 48.121H161.868V48.0298L161.776 47.8932ZM149.12 49.2592V49.3958L149.165 49.5324H149.757C150.243 49.5324 150.956 49.4261 151.897 49.2135V49.1226L150.577 48.986C149.606 49.0466 149.12 49.1378 149.12 49.2592ZM162.505 49.3501C162.535 49.4716 162.687 49.5324 162.96 49.5324H163.871L164.189 49.4412V49.3501C164.189 49.2592 164.007 49.1832 163.643 49.1226C162.884 49.1529 162.505 49.2287 162.505 49.3501ZM174.979 22.0339L175.662 21.8518C176.451 21.8518 178.713 22.307 182.446 23.2176C184.206 24.0371 185.223 24.4468 185.496 24.4468C185.739 24.1129 185.86 23.688 185.86 23.172V23.081V22.7623C185.86 22.3677 186.134 22.1705 186.68 22.1705C187.044 21.8973 187.56 21.7607 188.228 21.7607C189.138 21.7607 189.593 21.8669 189.593 22.0794L190.003 26.3589V27.6792C190.003 28.7719 189.852 29.4244 189.548 29.6369C189.275 29.9101 189.062 30.0466 188.911 30.0466C187.211 29.8949 186.361 29.6673 186.361 29.3637C186.149 28.6353 185.618 28.1042 184.768 27.7703C181.854 26.3134 179.76 25.585 178.485 25.585L177.21 25.4939C175.693 25.4939 174.797 25.7823 174.524 26.3589C174.16 26.8446 173.978 27.4971 173.978 28.3166V28.3621C173.978 30.0315 174.843 31.4125 176.573 32.5051C178.303 33.2032 179.805 33.5522 181.08 33.5522C181.08 33.795 181.763 34.1289 183.129 34.5538C183.402 35.0091 183.994 35.2367 184.904 35.2367C185.845 35.6009 187.196 36.7543 188.956 38.6968L189.138 38.8788V39.0611C189.138 39.1217 189.047 39.152 188.865 39.152V39.2432C189.29 40.1537 189.503 40.6849 189.503 40.8366C189.503 43.5683 189.062 45.283 188.182 45.9811C187.788 46.8007 186.953 47.6049 185.678 48.3942C184.252 49.6993 182.795 50.3517 181.308 50.3517H179.714C177.316 49.9876 176.118 49.6841 176.118 49.4412C174.721 48.4699 173.917 47.9844 173.705 47.9844C172.217 47.2862 171.185 46.5578 170.609 45.7991H170.427C170.062 46.8613 169.759 47.3925 169.516 47.3925C167.604 47.089 166.648 46.755 166.648 46.3909C166.466 45.8748 166.36 44.5546 166.329 42.4301L166.785 39.6073C166.785 38.5753 166.906 38.0595 167.149 38.0595L170.062 37.7408C170.275 37.7408 170.487 38.5753 170.7 40.2448L171.974 42.5667C171.974 42.6576 173.325 43.5683 176.026 45.2981C176.694 46.0571 177.65 46.4364 178.895 46.4364H180.488C182.097 46.4364 183.189 45.9205 183.766 44.8886C184.464 44.1296 184.98 43.0219 185.314 41.5651V41.4285C185.314 40.5483 184.54 39.4404 182.992 38.1049C182.325 37.3462 181.475 36.9668 180.443 36.9668C179.836 36.6936 178.47 36.4053 176.345 36.1018L172.703 34.2352L170.927 32.7327C170.169 31.5794 169.759 30.7599 169.698 30.2743L169.789 29.5003L169.607 27.7703C169.607 27.3454 169.865 26.8446 170.381 26.2679C170.381 25.9037 171.11 25.069 172.567 23.7639C173.932 23.0355 174.736 22.4588 174.979 22.0339ZM175.435 22.4891V22.6713C175.435 22.7926 175.632 22.8989 176.026 22.9899C176.846 22.9292 177.256 22.823 177.256 22.6713V22.4891C177.256 22.2767 176.831 22.1705 175.981 22.1705C175.738 22.1705 175.556 22.2767 175.435 22.4891ZM187.317 22.3981V22.4891C187.651 23.0355 187.939 23.3086 188.182 23.3086C188.425 23.3086 188.607 23.1569 188.729 22.8533V22.6713C188.729 22.4891 188.258 22.3981 187.317 22.3981ZM188.911 23.8094L188.774 23.9915L188.911 24.0826H189.138V23.8094H188.911ZM176.709 24.4923C176.831 24.6137 176.983 24.6744 177.165 24.6744C177.468 24.6744 177.787 24.5075 178.121 24.1736L177.893 23.9915H177.392C176.937 23.9915 176.709 24.1585 176.709 24.4923ZM182.901 24.4468V24.4923C182.901 24.5834 183.083 24.6441 183.447 24.6744H183.584V24.6289C183.584 24.5682 183.356 24.5075 182.901 24.4468ZM178.804 25.0386L178.622 25.2208C178.622 25.4332 179.168 25.5698 180.26 25.6305V25.4939C180.26 25.3725 179.805 25.2208 178.895 25.0386H178.804ZM172.43 26.45V26.4955L172.521 26.5411H172.703C173.371 26.0554 173.705 25.6609 173.705 25.3573H173.659H173.568C173.234 25.3573 172.855 25.7216 172.43 26.45ZM185.769 25.676L185.678 25.7671C186.103 26.101 186.589 26.3286 187.135 26.45L187.181 26.3589V26.2679C187.181 26.1161 186.741 25.9189 185.86 25.676H185.769ZM172.248 25.7671L172.111 25.8126L172.157 25.9037V25.9492L172.339 25.9037V25.7671H172.248ZM183.447 26.1313L183.402 26.1768V26.2679C184.343 26.8142 184.935 27.0874 185.177 27.0874V27.0419C185.177 26.8597 184.601 26.5562 183.447 26.1313ZM170.973 26.2679H170.745L170.7 26.5866V26.7232L170.745 26.8142L170.973 26.3589V26.2679ZM170.518 27.3605L170.381 27.4061C170.442 27.9827 170.518 28.3925 170.609 28.6353H170.745V28.5898L170.7 27.3605H170.518ZM171.747 27.7703L171.565 27.9069V28.0435H171.702L171.929 27.8613V27.7703H171.747ZM186.999 28.954L186.816 29.045C187.059 29.1968 187.499 29.2727 188.137 29.2727L189.047 29.2272V29.045C188.501 28.9843 187.939 28.954 187.363 28.954H186.999ZM173.659 31.5035L173.568 31.549V31.6401L173.659 31.7767H174.114V31.6401C174.084 31.549 173.932 31.5035 173.659 31.5035ZM171.565 31.6401L171.474 31.7767V31.8222L171.565 31.9133H171.702V31.7767L171.565 31.6401ZM172.384 31.9133H172.339V32.0043C172.551 32.672 172.764 33.0059 172.976 33.0059H173.158L173.386 32.7783V32.7327C172.991 32.1864 172.657 31.9133 172.384 31.9133ZM174.661 31.9133L174.57 32.0043V32.2775L174.843 32.5506H174.979L175.116 32.4596V32.2319C174.995 32.0195 174.843 31.9133 174.661 31.9133ZM176.118 33.0059L176.026 33.097V33.1425C176.421 33.5067 177.013 33.8254 177.802 34.0986L177.893 33.962C177.893 33.7799 177.301 33.4612 176.118 33.0059ZM178.622 34.1441C178.622 34.2655 179.699 34.5842 181.854 35.1002L182.446 35.1457H182.582V35.1002C181.672 34.4021 180.564 33.9923 179.259 33.8709C178.834 34.0227 178.622 34.1137 178.622 34.1441ZM174.706 34.3262H174.661C174.661 34.5386 174.858 34.7056 175.253 34.827L175.344 34.7815C175.344 34.6297 175.131 34.4779 174.706 34.3262ZM179.168 35.4644V35.6465L179.942 35.9196H180.443V35.7831C179.896 35.5706 179.471 35.4644 179.168 35.4644ZM184.039 36.1018H183.629V36.2383C183.812 36.4205 184.616 36.8757 186.042 37.6042C186.649 38.1504 187.12 38.4236 187.454 38.4236H187.499L187.59 38.287C186.892 37.3765 185.709 36.6481 184.039 36.1018ZM185.177 38.8788H185.132V39.1066C185.132 39.4101 185.39 39.7744 185.906 40.1993H186.179V39.835C186.179 39.4707 185.845 39.152 185.177 38.8788ZM168.788 39.5164H168.56V39.6984L168.651 39.7896L168.833 39.6984L168.788 39.5164ZM167.012 43.1585L167.058 44.2968H167.103C167.316 44.1753 167.422 43.462 167.422 42.1569V41.7926L167.331 41.7017H167.24C167.149 41.7017 167.073 42.1872 167.012 43.1585ZM185.997 42.4301H185.769V42.6576L185.906 42.7033L186.042 42.5667L185.997 42.4301ZM188.592 42.4301L188.228 42.7942V43.0219L188.319 43.1585H188.456C188.638 43.1282 188.729 42.8853 188.729 42.4301H188.592ZM170.563 43.9779H170.427V44.1602C170.882 44.7368 171.322 45.0252 171.747 45.0252H171.838V44.8886C171.17 44.2816 170.745 43.9779 170.563 43.9779ZM184.677 45.617V45.7991H184.768C185.041 45.617 185.269 45.359 185.451 45.0252L185.359 44.8886C185.117 45.0403 184.889 45.283 184.677 45.617ZM168.469 45.5259H168.241V45.7079L168.469 45.8445L168.651 45.7991V45.7079L168.469 45.5259ZM187.135 46.0268L185.587 47.3014V47.3925C185.587 47.4531 185.648 47.4837 185.769 47.4837C186.134 47.4837 186.634 46.9979 187.272 46.0268H187.135ZM176.3 48.0755L174.979 47.9844V48.0755C174.979 48.1967 175.374 48.3485 176.163 48.5308L176.345 48.7128H176.573C176.512 48.2879 176.421 48.0755 176.3 48.0755ZM177.802 48.7128L177.666 48.5762V48.7583H177.802V48.7128ZM177.392 49.2135H177.301L177.483 49.4412H177.848V49.3958C177.817 49.2743 177.666 49.2135 177.392 49.2135ZM182.673 49.2135L182.582 49.3047V49.4412L182.673 49.5324H182.856C183.432 49.5019 183.721 49.4261 183.721 49.3047L183.584 49.2135H182.673ZM178.303 49.4867C178.728 49.7296 179.305 49.851 180.033 49.851H180.124L182.082 49.7599V49.6688C181.99 49.4261 180.943 49.3047 178.94 49.3047C178.515 49.3047 178.303 49.3653 178.303 49.4867Z" fill="white"/>
</svg>
