<svg width="158" height="26" viewBox="0 0 158 26" fill="none" xmlns="http://www.w3.org/2000/svg">
<path d="M96.4705 24.3H82.7682C82.73 24.3 82.6952 24.2783 82.6784 24.244L71.6219 1.66542C71.5848 1.58976 71.4766 1.59101 71.4413 1.66751L61.0655 24.1581C61.0349 24.2244 61.0833 24.3 61.1563 24.3H74.937C74.9755 24.3 75.0106 24.2779 75.0272 24.2432L85.8492 1.66824C85.8858 1.59192 85.9947 1.59273 86.0302 1.66958L96.4705 24.3Z" stroke="#F0F0F0" stroke-width="1.8"/>
<path d="M104.723 1.29999H96.9234C96.8681 1.29999 96.8234 1.34476 96.8234 1.39999V24.2999H104.823V1.39999C104.823 1.34476 104.779 1.29999 104.723 1.29999Z" stroke="#F0F0F0" stroke-width="1.8"/>
<path d="M104.823 24.2999V1.60719C104.823 1.51037 104.947 1.47006 105.004 1.54832L121.348 23.9928C121.405 24.071 121.529 24.0307 121.529 23.9339V1.29999" stroke="#F0F0F0" stroke-width="1.8"/>
<path d="M121.529 1.45886V24.3H135.118C137.706 24.3 143.823 22.1236 143.823 12.4765C143.823 2.82941 137.059 1.35886 135.118 1.35886H121.623C121.567 1.35886 121.529 1.40363 121.529 1.45886Z" stroke="#F0F0F0" stroke-width="1.8"/>
<path d="M152.907 9.35931L136.456 19.9395C136.403 19.9737 136.394 20.0469 136.439 20.091C137.268 20.8931 143.928 26.9997 150.588 22.8293C157.274 18.6426 153.527 10.3826 153.048 9.39685C153.022 9.34387 152.957 9.32746 152.907 9.35931Z" stroke="#F0F0F0" stroke-width="1.8"/>
<path d="M156.246 3.42782L148.69 8.293C148.637 8.32708 148.567 8.30486 148.546 8.24545C148.304 7.55421 147.176 3.87787 149.941 2.12352C152.699 0.373279 155.696 2.7836 156.259 3.27456C156.308 3.3172 156.3 3.39271 156.246 3.42782Z" stroke="#F0F0F0" stroke-width="1.8"/>
<path d="M104.823 24.3H121.529" stroke="#F0F0F0" stroke-width="1.8"/>
<path d="M48.5644 18.2569L42.8068 12.4991L45.1224 10.1835L48.3404 6.96495C49.2197 6.08557 49.2193 4.66007 48.3404 3.78068L46.2193 1.65955C45.7796 1.21985 45.203 1 44.627 1C44.0509 1 43.4743 1.21985 43.0346 1.65955L39.8167 4.8771L37.5011 7.19279L31.744 1.43548C31.4538 1.14532 31.0732 1 30.6926 1C30.312 1 29.9318 1.14532 29.6412 1.43548L25.4365 5.64072C24.8562 6.22151 24.8558 7.16277 25.4365 7.74356L31.1927 13.4999L25.8954 18.7969L25.0161 23.8337C24.8886 24.5664 25.542 25.0947 26.1687 24.985L31.2049 24.1018L36.4989 18.8068L42.2565 24.5645C42.3944 24.7027 42.5582 24.8124 42.7385 24.8871C42.9189 24.9618 43.1122 25.0002 43.3074 25C43.6881 25 44.0687 24.8547 44.3588 24.5645L48.5644 20.3598C49.1452 19.779 49.1452 18.8377 48.5644 18.2569ZM44.0949 2.72035C44.2867 2.52862 44.9668 2.52862 45.1585 2.72035L47.2796 4.84101C47.5725 5.13399 47.5725 5.61071 47.2796 5.9037L45.122 8.06137L41.9373 4.87664L44.0949 2.72035ZM26.4968 6.70153L30.6926 2.50518L33.3152 5.12509L31.4857 6.95463C31.3394 7.10089 31.3394 7.33856 31.4857 7.48481L32.0158 8.01499C32.1621 8.16125 32.3998 8.16125 32.546 8.01499L34.376 6.18493L36.4431 8.24985L32.2479 12.4448L26.4968 6.70153ZM30.4793 22.7064L26.6173 23.3837L27.2909 19.5225L40.8765 5.93791L44.0612 9.12266L30.4793 22.7064ZM43.3173 23.5042L37.5583 17.7478L41.7522 13.5533L43.8203 15.6192L41.9851 17.4549C41.8389 17.6011 41.8389 17.8388 41.9851 17.985L42.5153 18.5152C42.6615 18.6614 42.8991 18.6614 43.0454 18.5152L44.8815 16.679L47.5036 19.2985L43.3173 23.5042Z" fill="url(#paint0_linear_1_74)"/>
<path d="M0 14.2614V2.82278C0 1.81609 0.81609 1 1.82279 1H4.98024C6.29655 1 7.36364 2.06709 7.36364 3.3834V15.7614C7.36364 17.7006 8.93573 19.2727 10.875 19.2727C12.8143 19.2727 14.3864 17.7006 14.3864 15.7614V3.3834C14.3864 2.06708 15.4534 1 16.7698 1H19.6545C20.6612 1 21.4773 1.81609 21.4773 2.82278V14.2614C21.4773 20.1921 16.6694 25 10.7386 25C4.80785 25 0 20.1921 0 14.2614Z" fill="#D3D3D3"/>
<defs>
<linearGradient id="paint0_linear_1_74" x1="37" y1="1" x2="37" y2="25" gradientUnits="userSpaceOnUse">
<stop stop-color="#6641F2"/>
<stop offset="1" stop-color="#EC498A"/>
</linearGradient>
</defs>
</svg>
